<svg width="16" height="15" viewBox="0 0 16 15" fill="none" xmlns="http://www.w3.org/2000/svg">
<path d="M15 2.90932H4.5L4 0.888253C3.9 0.42892 3.5 0.15332 3 0.15332H0V1.99065H2.2L4 9.52371C4.1 9.98304 4.5 10.2586 5 10.2586H13C13.4 10.2586 13.8 9.98304 13.9 9.61557L15.9 4.10358C16.1 3.64425 15.8 2.90932 15 2.90932Z" fill="#555373"/>
<path d="M5 14.8519C6.10457 14.8519 7 14.0293 7 13.0146C7 11.9998 6.10457 11.1772 5 11.1772C3.89543 11.1772 3 11.9998 3 13.0146C3 14.0293 3.89543 14.8519 5 14.8519Z" fill="#555373"/>
<path d="M13 14.8519C14.1046 14.8519 15 14.0293 15 13.0146C15 11.9998 14.1046 11.1772 13 11.1772C11.8954 11.1772 11 11.9998 11 13.0146C11 14.0293 11.8954 14.8519 13 14.8519Z" fill="#555373"/>
</svg>
