<svg width="16" height="15" viewBox="0 0 16 15" fill="none" xmlns="http://www.w3.org/2000/svg">
<path d="M8 14.852C3.6 14.852 0 11.5448 0 7.50264C0 3.46052 3.6 0.15332 8 0.15332C12.4 0.15332 16 3.46052 16 7.50264C16 11.5448 12.4 14.852 8 14.852ZM8 1.99065C4.7 1.99065 2 4.47105 2 7.50264C2 10.5342 4.7 13.0146 8 13.0146C11.3 13.0146 14 10.5342 14 7.50264C14 4.47105 11.3 1.99065 8 1.99065Z" fill="#555373"/>
<path d="M4.19996 7.50263C4.49996 6.76769 5.79996 6.58396 6.39996 6.85956C6.99996 7.13516 7.49996 6.85956 8.09996 7.50263C8.59996 8.14569 9.09996 7.96196 9.19996 8.88062C9.29996 9.79929 7.89996 11.4529 7.59996 11.9122C7.19996 12.3716 6.19996 11.8204 6.19996 10.5342C6.19996 9.24809 5.49996 9.15622 5.09996 9.06436C4.59996 8.88062 3.59996 8.78876 4.19996 7.50263Z" fill="#555373"/>
<path d="M6.6999 3.3687C6.6999 3.3687 6.4999 3.82803 6.8999 3.9199C7.8999 4.10363 7.9999 4.37923 8.3999 4.83856C8.7999 5.2979 8.2999 5.75723 8.1999 6.30843C8.0999 6.76776 8.4999 7.04336 9.3999 6.85963C10.5999 6.58403 10.6999 7.77829 11.3999 7.68643C11.9999 7.59456 12.4999 8.51322 12.7999 8.60509C12.8999 8.23763 12.9999 7.87016 12.9999 7.50269C12.9999 5.75723 11.8999 4.28736 10.3999 3.46057C9.9999 3.3687 9.5999 3.3687 9.1999 3.3687C8.3999 3.3687 7.6999 2.90937 6.6999 3.3687Z" fill="#555373"/>
</svg>
